<svg xmlns="http://www.w3.org/2000/svg" viewBox="0 0 1600 1000" width="1600" height="1000">
<rect width="1600" height="1000" fill="#2A1620"/>
<text x="40" y="52" font-family="system-ui, sans-serif" font-size="34" font-weight="700" fill="#FFF3D6">PANIK — Tezgâh</text>
<text x="40" y="76" font-family="system-ui, sans-serif" font-size="16" fill="#FFF3D6" opacity="0.8">enerjik / yüksek doygunluk — el tezgâhta, tempo var</text>
<rect x="40" y="120" width="320" height="320" fill="#2A1620" stroke="#FFF3D6" stroke-width="2"/><text x="40" y="108" font-family="system-ui, sans-serif" font-size="20" font-weight="700" fill="#FFF3D6">Uygulama İkonu</text>
<rect x="40" y="120" width="320" height="320" fill="#2A1620"/><rect x="92" y="260" width="216" height="96" rx="4" fill="#F2E205"/><polygon points="68,256 200,176 332,256" fill="#FF7A00"/><rect x="160" y="288" width="80" height="40" rx="2" fill="#00C2A8"/><rect x="92" y="260" width="216" height="96" rx="4" fill="none" stroke="#918703" stroke-width="4"/><text x="200.0" y="426" text-anchor="middle" font-family="system-ui, sans-serif" font-size="15" fill="#FFF3D6" opacity="0.75">1024 mantıksal kare · ham kare</text>
<rect x="400" y="120" width="1160" height="536" fill="#1E0F18" stroke="#FFF3D6" stroke-width="2"/><text x="400" y="108" font-family="system-ui, sans-serif" font-size="20" font-weight="700" fill="#FFF3D6">Oyun Sahnesi</text>
<clipPath id="sahneKirp"><rect x="400" y="120" width="1160" height="536"/></clipPath>
<g clip-path="url(#sahneKirp)"><rect x="400" y="120" width="1160" height="536" fill="#1E0F18"/><polygon points="400,260 1560,172 1560,200 400,288" fill="#43203A"/><polygon points="400,392 1560,304 1560,332 400,420" fill="#43203A"/><polygon points="400,524 1560,436 1560,464 400,552" fill="#43203A"/><polygon points="512.0,328 632,388.0 632,508.0 512.0,448" fill="#582035"/><polygon points="752.0,328 632,388.0 632,508.0 752.0,448" fill="#69263F"/><polygon points="632,268.0 752.0,328 632,388.0 512.0,328" fill="#7B2D4A"/><rect x="512" y="212" width="6" height="116" fill="#491B2C"/><rect x="744" y="212" width="6" height="116" fill="#491B2C"/><polygon points="504,226 632,202 760,226 632,250" fill="#FF7A00"/><rect x="528" y="244" width="36" height="36" rx="2" fill="#00C2A8" opacity="1"/><rect x="568" y="248" width="36" height="36" rx="2" fill="#00C2A8" opacity="1"/><rect x="608" y="252" width="36" height="36" rx="2" fill="#00C2A8" opacity="1"/><rect x="652" y="256" width="36" height="36" rx="2" fill="#00C2A8" opacity="1"/><polygon points="840.0,264 960,324.0 960,468.0 840.0,408" fill="#582035"/><polygon points="1080.0,264 960,324.0 960,468.0 1080.0,408" fill="#69263F"/><polygon points="960,204.0 1080.0,264 960,324.0 840.0,264" fill="#7B2D4A"/><rect x="840" y="148" width="6" height="116" fill="#491B2C"/><rect x="1072" y="148" width="6" height="116" fill="#491B2C"/><polygon points="832,162 960,138 1088,162 960,186" fill="#FF7A00"/><rect x="856" y="180" width="36" height="36" rx="2" fill="#00C2A8" opacity="1"/><rect x="896" y="184" width="36" height="36" rx="2" fill="#00C2A8" opacity="1"/><rect x="936" y="188" width="36" height="36" rx="2" fill="#00C2A8" opacity="1"/><rect x="980" y="192" width="36" height="36" rx="2" fill="#7B2D4A" opacity="0.20"/><polygon points="1168.0,248 1288,308.0 1288,428.0 1168.0,368" fill="#582035"/><polygon points="1408.0,248 1288,308.0 1288,428.0 1408.0,368" fill="#69263F"/><polygon points="1288,188.0 1408.0,248 1288,308.0 1168.0,248" fill="#7B2D4A"/><rect x="1168" y="132" width="6" height="116" fill="#491B2C"/><rect x="1400" y="132" width="6" height="116" fill="#491B2C"/><polygon points="1160,146 1288,122 1416,146 1288,170" fill="#FF7A00"/><rect x="1184" y="164" width="36" height="36" rx="2" fill="#00C2A8" opacity="1"/><rect x="1224" y="168" width="36" height="36" rx="2" fill="#00C2A8" opacity="1"/><rect x="1264" y="172" width="36" height="36" rx="2" fill="#7B2D4A" opacity="0.20"/><rect x="1308" y="176" width="36" height="36" rx="2" fill="#7B2D4A" opacity="0.20"/><polygon points="660.0,444 780,504.0 780,648.0 660.0,588" fill="#582035"/><polygon points="900.0,444 780,504.0 780,648.0 900.0,588" fill="#69263F"/><polygon points="780,384.0 900.0,444 780,504.0 660.0,444" fill="#7B2D4A"/><rect x="660" y="328" width="6" height="116" fill="#491B2C"/><rect x="896" y="328" width="6" height="116" fill="#491B2C"/><polygon points="652,342 780,318 908,342 780,366" fill="#FF7A00"/><rect x="672" y="356" width="36" height="36" rx="2" fill="#00C2A8" opacity="1"/><rect x="716" y="364" width="36" height="36" rx="2" fill="#7B2D4A" opacity="0.20"/><rect x="760" y="368" width="36" height="36" rx="2" fill="#7B2D4A" opacity="0.20"/><rect x="800" y="372" width="36" height="36" rx="2" fill="#7B2D4A" opacity="0.20"/><polygon points="872,354 884,376 860,376" fill="#E01E5A"/><polygon points="992.0,428 1112,488.0 1112,608.0 992.0,548" fill="#582035"/><polygon points="1232.0,428 1112,488.0 1112,608.0 1232.0,548" fill="#69263F"/><polygon points="1112,368.0 1232.0,428 1112,488.0 992.0,428" fill="#7B2D4A"/><rect x="992" y="312" width="6" height="116" fill="#491B2C"/><rect x="1224" y="312" width="6" height="116" fill="#491B2C"/><polygon points="984,326 1112,302 1240,326 1112,350" fill="#FF7A00"/><rect x="1008" y="340" width="36" height="36" rx="2" fill="#00C2A8" opacity="1"/><rect x="1048" y="348" width="36" height="36" rx="2" fill="#00C2A8" opacity="1"/><rect x="1088" y="352" width="36" height="36" rx="2" fill="#00C2A8" opacity="1"/><rect x="1132" y="356" width="36" height="36" rx="2" fill="#00C2A8" opacity="1"/><polygon points="1320.0,364 1440,424.0 1440,568.0 1320.0,508" fill="#582035"/><polygon points="1560.0,364 1440,424.0 1440,568.0 1560.0,508" fill="#69263F"/><polygon points="1440,304.0 1560.0,364 1440,424.0 1320.0,364" fill="#7B2D4A"/><rect x="1320" y="248" width="6" height="116" fill="#491B2C"/><rect x="1552" y="248" width="6" height="116" fill="#491B2C"/><polygon points="1312,262 1440,238 1568,262 1440,286" fill="#FF7A00"/><rect x="1336" y="276" width="36" height="36" rx="2" fill="#00C2A8" opacity="1"/><rect x="1376" y="284" width="36" height="36" rx="2" fill="#00C2A8" opacity="1"/><rect x="1416" y="288" width="36" height="36" rx="2" fill="#00C2A8" opacity="1"/><rect x="1460" y="292" width="36" height="36" rx="2" fill="#7B2D4A" opacity="0.20"/><circle cx="560" cy="272" r="16" fill="#F2E205"/><rect x="556" y="284" width="8" height="20" fill="#F2E205" opacity="0.9"/><circle cx="696" cy="360" r="16" fill="#F2E205"/><rect x="692" y="372" width="8" height="20" fill="#F2E205" opacity="0.9"/><circle cx="832" cy="452" r="16" fill="#F2E205"/><rect x="828" y="464" width="8" height="20" fill="#F2E205" opacity="0.9"/><circle cx="972" cy="544" r="16" fill="#F2E205"/><rect x="968" y="556" width="8" height="20" fill="#F2E205" opacity="0.9"/><circle cx="1108" cy="336" r="16" fill="#F2E205"/><rect x="1104" y="348" width="8" height="20" fill="#F2E205" opacity="0.9"/><circle cx="1244" cy="424" r="16" fill="#F2E205"/><rect x="1240" y="436" width="8" height="20" fill="#F2E205" opacity="0.9"/><circle cx="1384" cy="516" r="16" fill="#F2E205"/><rect x="1380" y="528" width="8" height="20" fill="#F2E205" opacity="0.9"/><circle cx="620" cy="308" r="16" fill="#F2E205"/><rect x="616" y="320" width="8" height="20" fill="#F2E205" opacity="0.9"/><circle cx="756" cy="400" r="16" fill="#F2E205"/><rect x="752" y="412" width="8" height="20" fill="#F2E205" opacity="0.9"/><circle cx="892" cy="488" r="16" fill="#F2E205"/><rect x="888" y="500" width="8" height="20" fill="#F2E205" opacity="0.9"/><polygon points="400,656 1560,592 1560,656 400,656" fill="#000000" opacity="0.10"/></g>
<rect x="40" y="480" width="320" height="456" fill="#2A1620" stroke="#FFF3D6" stroke-width="2"/><text x="40" y="468" font-family="system-ui, sans-serif" font-size="20" font-weight="700" fill="#FFF3D6">Gün Sonu Kartı</text>
<rect x="40" y="480" width="320" height="456" fill="#2A1620"/><text x="64" y="544" font-family="system-ui, sans-serif" font-size="30" font-weight="700" fill="#FFF3D6">Gün Sonu</text><rect x="64" y="568" width="272" height="3" fill="#FF7A00"/><text x="64" y="628" font-family="system-ui, sans-serif" font-size="20" fill="#FFF3D6" opacity="0.85">Satılan</text><text x="336" y="628" text-anchor="end" font-family="system-ui, sans-serif" font-size="20" font-weight="700" fill="#FFF3D6">18 / 24</text><text x="64" y="684" font-family="system-ui, sans-serif" font-size="20" fill="#FFF3D6" opacity="0.85">Kalan stok</text><text x="336" y="684" text-anchor="end" font-family="system-ui, sans-serif" font-size="20" font-weight="700" fill="#FFF3D6">6</text><rect x="64" y="716" width="272" height="44" rx="4" fill="#E01E5A" opacity="0.16"/><polygon points="86,728 98,750 74,750" fill="#E01E5A"/><text x="110" y="746" font-family="system-ui, sans-serif" font-size="17" fill="#FFF3D6">Tezgâh boşalıyor</text><rect x="64" y="840" width="272" height="56" rx="16" fill="#CDC004"/><text x="200.0" y="876" text-anchor="middle" font-family="system-ui, sans-serif" font-size="20" font-weight="700" fill="#FFF3D6">Ertesi Gün</text>
<rect x="400" y="696" width="1160" height="240" fill="#2A1620" stroke="#FFF3D6" stroke-width="2"/><text x="400" y="684" font-family="system-ui, sans-serif" font-size="20" font-weight="700" fill="#FFF3D6">Palet ve Tipografi</text>
<rect x="400" y="696" width="1160" height="240" fill="#2A1620"/><rect x="424" y="720" width="132" height="88" rx="2" fill="#2A1620" stroke="#FFF3D6" stroke-width="1" stroke-opacity="0.25"/><text x="432" y="772" font-family="system-ui, sans-serif" font-size="13" font-weight="700" fill="#FFFFFF">#2A1620</text><text x="432" y="824" font-family="system-ui, sans-serif" font-size="12" fill="#FFF3D6" opacity="0.7">arka_plan</text><rect x="564" y="720" width="132" height="88" rx="2" fill="#F2E205" stroke="#FFF3D6" stroke-width="1" stroke-opacity="0.25"/><text x="572" y="772" font-family="system-ui, sans-serif" font-size="13" font-weight="700" fill="#101010">#F2E205</text><text x="572" y="824" font-family="system-ui, sans-serif" font-size="12" fill="#FFF3D6" opacity="0.7">ana_ozne</text><rect x="704" y="720" width="132" height="88" rx="2" fill="#FF7A00" stroke="#FFF3D6" stroke-width="1" stroke-opacity="0.25"/><text x="712" y="772" font-family="system-ui, sans-serif" font-size="13" font-weight="700" fill="#FFFFFF">#FF7A00</text><text x="712" y="824" font-family="system-ui, sans-serif" font-size="12" fill="#FFF3D6" opacity="0.7">vurgu</text><rect x="844" y="720" width="132" height="88" rx="2" fill="#E01E5A" stroke="#FFF3D6" stroke-width="1" stroke-opacity="0.25"/><text x="852" y="772" font-family="system-ui, sans-serif" font-size="13" font-weight="700" fill="#FFFFFF">#E01E5A</text><text x="852" y="824" font-family="system-ui, sans-serif" font-size="12" fill="#FFF3D6" opacity="0.7">tehlike</text><rect x="984" y="720" width="132" height="88" rx="2" fill="#FFF3D6" stroke="#FFF3D6" stroke-width="1" stroke-opacity="0.25"/><text x="992" y="772" font-family="system-ui, sans-serif" font-size="13" font-weight="700" fill="#101010">#FFF3D6</text><text x="992" y="824" font-family="system-ui, sans-serif" font-size="12" fill="#FFF3D6" opacity="0.7">ui_metin</text><rect x="1124" y="720" width="132" height="88" rx="2" fill="#43203A" stroke="#FFF3D6" stroke-width="1" stroke-opacity="0.25"/><text x="1132" y="772" font-family="system-ui, sans-serif" font-size="13" font-weight="700" fill="#FFFFFF">#43203A</text><text x="1132" y="824" font-family="system-ui, sans-serif" font-size="12" fill="#FFF3D6" opacity="0.7">yol</text><rect x="1264" y="720" width="132" height="88" rx="2" fill="#7B2D4A" stroke="#FFF3D6" stroke-width="1" stroke-opacity="0.25"/><text x="1272" y="772" font-family="system-ui, sans-serif" font-size="13" font-weight="700" fill="#FFFFFF">#7B2D4A</text><text x="1272" y="824" font-family="system-ui, sans-serif" font-size="12" fill="#FFF3D6" opacity="0.7">govde</text><rect x="1404" y="720" width="132" height="88" rx="2" fill="#00C2A8" stroke="#FFF3D6" stroke-width="1" stroke-opacity="0.25"/><text x="1412" y="772" font-family="system-ui, sans-serif" font-size="13" font-weight="700" fill="#FFFFFF">#00C2A8</text><text x="1412" y="824" font-family="system-ui, sans-serif" font-size="12" fill="#FFF3D6" opacity="0.7">stok</text><text x="424" y="882" font-family="system-ui, sans-serif" font-size="34" font-weight="700" fill="#FFF3D6">Tezgâhı kur, günü çıkar</text><text x="424" y="922" font-family="system-ui, sans-serif" font-size="17" fill="#FFF3D6" opacity="0.85">Stok azalır, yenilenmez. Otuz saniyede bir gün: neyi kime satacağını seç.</text>
<rect x="40" y="120" width="320" height="320" fill="none" stroke="#FFF3D6" stroke-width="2"/>
<rect x="400" y="120" width="1160" height="536" fill="none" stroke="#FFF3D6" stroke-width="2"/>
<rect x="40" y="480" width="320" height="456" fill="none" stroke="#FFF3D6" stroke-width="2"/>
<rect x="400" y="696" width="1160" height="240" fill="none" stroke="#FFF3D6" stroke-width="2"/>
</svg>